<?xml version="1.0" encoding="UTF-8" standalone="no"?>
<!-- Created with Inkscape (http://www.inkscape.org/) -->

<svg
   width="229.85117mm"
   height="141.02455mm"
   viewBox="0 0 229.85117 141.02455"
   version="1.1"
   id="svg1"
   xmlns="http://www.w3.org/2000/svg"
   xmlns:svg="http://www.w3.org/2000/svg">
  <defs
     id="defs1" />
  <g
     id="layer1"
     transform="translate(14.1938,-81.347939)">
    <g
       id="g1480"
       transform="matrix(1.2693097,0,0,1.2693097,-1956.6343,-1432.5896)"
       style="fill:#f0e0c8;fill-opacity:1">
      <path
         id="path54"
         d="m 1698.7706,1303.8284 c -6.8544,0 -55.7922,0 -73.5884,0 l 2.7654,-7.5759 c 31.7438,-1.9243 45.6931,-28.3764 45.6931,-48.8184 0,-21.6431 -17.3151,-46.5325 -48.8184,-47.133 l 2.6459,-7.5743 c 17.4345,0 67.215,0 72.7456,0 5.7712,0 11.1823,5.4112 11.1823,10.4607 0,7.3355 0,71.9047 0,85.2518 0,9.978 -3.9679,15.3891 -12.6255,15.3891 z"
         fill="#00458d"
         style="stroke-width:1.68206" />
      <path
         id="path56"
         d="m 1600.5334,1303.8284 c -17.6751,0 -50.7427,0 -57.5954,0 -8.6575,0 -12.6255,-5.4111 -12.6255,-15.3908 0,-13.3471 0,-77.9163 0,-85.2517 0,-5.0496 5.4112,-10.4608 11.1823,-10.4608 5.7712,0 43.6477,0 61.0823,0 l -2.5248,7.4549 c -18.2772,7.2144 -32.3443,25.6127 -32.3443,47.2541 0,20.442 12.0234,40.2819 35.7118,48.0968 z"
         fill="#00458d"
         style="stroke-width:1.68206" />
      <g
         id="g62"
         transform="matrix(1.6820581,0,0,1.6820581,1138.4821,839.51313)">
        <path
           id="path58-9"
           d="m 287.633,237.438 c -0.429,1.287 -6.434,18.157 -6.434,18.157 h -7.006 l 7.721,-21.731 h -3.86 l -7.72,21.731 h -6.791 l 16.227,-45.607 h 6.791 l -7.148,20.087 c 0,0 3.145,0 5.075,0 2.43,0 4.146,1.787 4.146,3.86 0,1.001 -0.715,2.717 -1.001,3.503 z"
           fill="#00458d" />
        <path
           id="path60"
           d="m 310.294,237.367 c -0.429,1.287 -4.432,12.581 -5.147,14.511 -0.715,1.93 -1.715,4.718 -5.004,4.718 h -7.648 l -7.005,19.444 h -7.005 l 16.37,-45.965 h 12.295 c 2.359,0 4.146,1.787 4.146,3.86 -0.002,0.858 -0.502,2.073 -1.002,3.432 z m -9.722,-3.503 -6.719,18.944 h 3.86 l 6.719,-18.944 z"
           fill="#00458d" />
      </g>
    </g>
  </g>
</svg>
